<svg width="267" height="239" viewBox="0 0 267 239" fill="none" xmlns="http://www.w3.org/2000/svg">
<path d="M237.5 120.5C237.5 177.352 190.747 223.5 133 223.5C75.2528 223.5 28.5 177.352 28.5 120.5C28.5 63.6478 75.2528 17.5 133 17.5C190.747 17.5 237.5 63.6478 237.5 120.5Z" stroke="#D6CB68" stroke-width="5"/>
<path d="M90.1585 79.2412L86.3451 83.7536C52.3371 123.996 80.942 185.62 133.629 185.62V185.62V185.62C185.971 185.619 214.166 124.184 180.037 84.499L175.516 79.2414" stroke="white" stroke-width="20" stroke-linecap="round"/>
<path d="M141.586 66.7337L172.265 45.6129C175.914 43.1008 180.884 45.713 180.884 50.1431V108.595C180.884 112.803 176.351 115.453 172.685 113.387L142.006 96.1068C140.276 95.1322 139.205 93.3005 139.205 91.3147V71.264C139.205 69.4541 140.096 67.76 141.586 66.7337Z" fill="white" stroke="black"/>
<path d="M124.088 66.7337L93.4091 45.6129C89.7602 43.1008 84.7903 45.713 84.7903 50.1431V108.595C84.7903 112.803 89.3232 115.453 92.9896 113.387L123.668 96.1068C125.398 95.1322 126.469 93.3005 126.469 91.3147V71.264C126.469 69.4541 125.578 67.76 124.088 66.7337Z" fill="white" stroke="black"/>
<path d="M128.701 67.5418H138.574C141.611 67.5418 144.074 70.0042 144.074 73.0418V90.9583C144.074 93.9958 141.611 96.4583 138.574 96.4583H128.701C125.663 96.4583 123.201 93.9958 123.201 90.9583V73.0418C123.201 70.0042 125.663 67.5418 128.701 67.5418Z" fill="white" stroke="black"/>
</svg>
